<svg id="Layer_1" data-name="Layer 1" xmlns="http://www.w3.org/2000/svg" viewBox="0 0 200 50"><defs><style>.cls-1,.cls-2{isolation:isolate;}.cls-2{font-size:6px;font-family:Calibri;}.cls-2,.cls-3{fill:#fff;}</style></defs><g id="_" data-name=" " class="cls-1"><text class="cls-2" transform="translate(185.25 35.41)">™</text></g><g id="Group_62" data-name="Group 62"><path id="Path_79" data-name="Path 79" class="cls-3" d="M26.17,31.7a2.68,2.68,0,0,0,1.38,1c.1,0,.33.16.33,0a.66.66,0,0,0,.17-.55h.09c1.15-.38,1.39.86,2.31.86.22-.22,1.63-.65,1.63-.78,1.25.4,1.27.59,2.42-.11.11-.07.4-.14.4-.28h.17v.08h.08c0,.11-.14.39,0,.39l.78.31.51.08v-.08l.51-.08.09-.07.86-.16c.3,0,1.37.26,1.37.23.18,0,1.54-.09,1.54-.15H41l.43.15v-.07l.17-.24h.17l.26.24c.05-.32.94,0,.94.23.47-.15,2.48.53,2.48-.31l1.12.35c.4,0,.63-.25,1-.32l1.59.14,1-.16,1,.3.26-.23.77.3a2,2,0,0,1,.94-.07A1.06,1.06,0,0,1,54,32.4v-.08l.77-.31a.87.87,0,0,0,.69.54v-.07l.08-.08.43.15c0-.1-.08-.31.09-.31l1.79.23c.52,0,.88-.32,1.45-.13.1,0,.18,0,.18.14l.17-.08v-.08c.31,0,1.63.25,1.63.54h.08v-.08c.33-.4.63-.63,1.13-.25l.24.25h.09v-.07l.26-.39h.09l1.2.39c1-1.22,2.28,1.5,2.43,2.25,0,.12.12.39,0,.39v.07c-.14,0-.51-.05-.51.08-.51.27-1,.08-1.54.08A2.6,2.6,0,0,1,63,35.5c-.72.43-1.13.23-2,.23v.08l-.08.23h-.09c-.12-.06-.6-.32-.6-.15a5,5,0,0,1-1.8.07l.17.47h-.08v.08l-1.28-.43c-.53,0-1,.27-1.46.27-.14-.09-1.2-.76-1.2-.46H54.5c0,.17,0,.85-.17.85v.08h-.09v-.08c-.29-.11-1.8-1.06-1.8-.7h.09c-1.36,1.47-3.85-.11-5.52.89-.1.06-.56.28-.56.12-1-.9-1.49.47-2.48.47-.38-.26-2.14-.17-2.14-.62a3.19,3.19,0,0,1-2.35.19c-.09,0-.13-.08-.13,0-1.18,1.22-1-.31-2.06-.31,0,.14,0,.62-.17.62v.08h-.25c-.3-.22-.62-.43-.94-.62l-.51.62c-.59-.07-1.71-.17-1.71.54-.13,0-.18,0-.18-.08-.34-.24-2.74-.79-2.74-.15h-.08l-.09-.39h-.17l-.68.39-.26-.23-.17.31a3.64,3.64,0,0,0-2.86-.1l-.65.33a8.21,8.21,0,0,0-2.15.31l-1.37-.16c-.16,0-.42,0-.42-.15H21.8c0,.12,0,.31-.17.31s-1.11-.14-1.11-.47h-.17c-.1.13-.23.32-.43.32-.4-.52-.49-.08-.94-.08-.14.47-.28.15-.6.15-.37.15-1.63.65-1.63-.23h-.08c-.14.11-.86.39-.86.23-1.1-.6-4.42-6-1.54-6l.26-.08.17.23h.09c.17-.11.28-.07.51-.07V32.4c.66-.23,3.08.34,3.08-.08h.09v.08l.69.08a.91.91,0,0,0,.6.3c0-.17-.08-.62.17-.62.33.25,1.88.17,1.88.39H22l.17-.46c.23,0,1.15.39,1.29.39l.93-.39a5.37,5.37,0,0,0,1.55.07c-.06-.23.07-.3.25-.46"/></g><g id="Group_63" data-name="Group 63"><path id="Path_80" data-name="Path 80" class="cls-3" d="M10.52,26.49l1.19-.12c.88-.09,1.32-.49,1.32-1.26V13.91c0-.77-.44-1.17-1.32-1.27l-1.19-.12v-1h9.53v1l-1.48.12c-.88.07-1.32.5-1.32,1.27v11.2c0,.84.57,1.28,1.68,1.28,2.36,0,4.67-1.87,5.44-5.14h1.12l-.19,6.3H10.52Z"/></g><g id="Group_64" data-name="Group 64"><path id="Path_81" data-name="Path 81" class="cls-3" d="M39.44,24.85a6.14,6.14,0,0,1-5.7,3,7.1,7.1,0,0,1-4.5-1.5,5.33,5.33,0,0,1-2.18-4.23,5.56,5.56,0,0,1,2.28-4.39,7.13,7.13,0,0,1,4.4-1.53,5.48,5.48,0,0,1,5.76,5.18,5,5,0,0,1,0,.67v.05H31.31a6.08,6.08,0,0,0,0,.61c0,2.55,1.38,4,3.53,4,1.3,0,2.48-.77,3.62-2.3Zm-4.09-3.8v-.54c0-2.23-.62-3.36-1.79-3.36s-2.09,1.32-2.25,3.9Z"/></g><g id="Group_65" data-name="Group 65"><path id="Path_82" data-name="Path 82" class="cls-3" d="M40.81,26.59h.13c1.32,0,1.92-.38,1.92-1.36V18.51c0-.89-.49-1.06-2-1.1v-.87l5.55-.12,0,1.85a5.08,5.08,0,0,1,4-2c2.3,0,3.62,1.22,3.62,3.5v5.47c0,1,.57,1.36,1.84,1.36v1H50.26v-7.8c0-1.29-.2-1.9-1.16-1.9-1.63,0-2.51,1.46-2.51,4.33v3.05c0,1,.57,1.36,1.89,1.36h.13v1h-7.8Z"/></g><g id="Group_66" data-name="Group 66"><path id="Path_83" data-name="Path 83" class="cls-3" d="M71.13,26.59v1l-5.33.12V26.26a4.19,4.19,0,0,1-3.39,1.66c-2.72,0-5.2-2.49-5.2-5.91a5.69,5.69,0,0,1,5.59-5.8h.08a5,5,0,0,1,2.94,1v-3.8c0-.87-.49-1-2-1.08v-.87l5.51-.12V25.23c0,1,.57,1.36,1.84,1.36m-7.61-9.28c-1.35,0-2.1,1.5-2.1,4.49,0,3.29.52,4.88,1.94,4.88,1.12,0,2.2-1.43,2.2-4.13V21.3c0-2.67-.7-4-2.05-4"/></g><g id="Group_67" data-name="Group 67"><path id="Path_84" data-name="Path 84" class="cls-3" d="M76.88,18.11a8,8,0,0,1,2-1.22A6.23,6.23,0,0,1,81,16.51a4.41,4.41,0,0,1,4.3,2.3A6.18,6.18,0,0,1,90,16.51c2.72,0,4.66,1.62,4.66,4.09v7H90.94V21.21a2.11,2.11,0,0,0-1.79-2.4,1.88,1.88,0,0,0-.41,0,3.72,3.72,0,0,0-2.95,1.83v6.93H82V21.14a2.13,2.13,0,0,0-1.89-2.34,1.7,1.7,0,0,0-.39,0,4,4,0,0,0-2.87,1.5v7.26H73.12V16.73h3.76Z"/></g><g id="Group_68" data-name="Group 68"><path id="Path_85" data-name="Path 85" class="cls-3" d="M110.05,26.77a8.38,8.38,0,0,1-3.53,1c-1.24,0-1.84-.35-2.1-1.22a7.15,7.15,0,0,1-3.93,1.22c-1.92,0-3.34-1.29-3.34-2.65,0-2.58,2.1-3.1,7.1-4.51.07-1-.44-1.81-2.08-1.81a6.88,6.88,0,0,0-4.4,1.81V17.83A10.56,10.56,0,0,1,103,16.51c3,0,5,.92,5,3.29v4.93c0,.54.23.75.62.75s.55-.05,1.43-.61Zm-5.8-4.46C102,23,101,23.51,101,24.59a1.18,1.18,0,0,0,1.21,1.15,3.38,3.38,0,0,0,2.08-.82Z"/></g><g id="Group_69" data-name="Group 69"><path id="Path_86" data-name="Path 86" class="cls-3" d="M115.46,19.83h.05c1.11-2.26,2.35-3.31,3.81-3.31a4.26,4.26,0,0,1,2.48,1l-1,3a4.63,4.63,0,0,0-2.23-.8c-1.38,0-2.26,1.17-3.08,3.17v4.67H111.7V16.73h3.76Z"/></g><path id="Path_88" data-name="Path 88" class="cls-3" d="M127,22.08h0l4.64-5.35h4.4l-4.66,5.35,4.86,5.47h-4.6l-4.64-5.33h0v5.33h-3.76v-16H127Z"/><path id="Path_89" data-name="Path 89" class="cls-3" d="M76.88,31.83H73.79v2h3.09v.92H73.79v3.33H72.66V30.91h4.22Z"/><g id="Group_73" data-name="Group 73"><path id="Path_90" data-name="Path 90" class="cls-3" d="M80.36,32.48a.56.56,0,1,1,.63-.56.59.59,0,0,1-.63.56m.52,5.59h-1V33.35h1Z"/></g><g id="Group_74" data-name="Group 74"><path id="Path_91" data-name="Path 91" class="cls-3" d="M85.2,34h0a2.08,2.08,0,0,1,1.56-.71,1.69,1.69,0,0,1,1.78,1.61,1.41,1.41,0,0,1,0,.29v2.91h-1V35.15A1,1,0,0,0,86.64,34H86.5a1.76,1.76,0,0,0-1.3.69v3.38h-1V33.35h1Z"/></g><g id="Group_75" data-name="Group 75"><path id="Path_92" data-name="Path 92" class="cls-3" d="M95.88,37.8a1.83,1.83,0,0,1-1,.37c-.45,0-.7-.15-.79-.49a2.36,2.36,0,0,1-1.4.49A1.2,1.2,0,0,1,91.42,37v0c0-.93.94-1.22,1.78-1.49l.91-.3V35c0-.59-.31-.83-.93-.83a2.21,2.21,0,0,0-1.65.77v-1a2.27,2.27,0,0,1,1.73-.64c1,0,1.89.48,1.89,1.55v2.43c0,.18.07.24.2.24a1.27,1.27,0,0,0,.54-.25ZM94.1,35.74c-.88.27-1.64.55-1.64,1.1a.68.68,0,0,0,.69.66h0a1.33,1.33,0,0,0,.9-.39Z"/></g><g id="Group_76" data-name="Group 76"><path id="Path_93" data-name="Path 93" class="cls-3" d="M99.66,34h0a2.06,2.06,0,0,1,1.55-.71A1.7,1.7,0,0,1,103,34.87a2.81,2.81,0,0,1,0,.29v2.91h-1V35.15A1,1,0,0,0,101.1,34H101a1.74,1.74,0,0,0-1.29.69v3.38h-1V33.35h1Z"/></g><g id="Group_77" data-name="Group 77"><path id="Path_94" data-name="Path 94" class="cls-3" d="M110.12,34.58a2.61,2.61,0,0,0-1.43-.46,1.51,1.51,0,0,0-1.59,1.43,1,1,0,0,0,0,.17,1.56,1.56,0,0,0,1.54,1.58l.22,0a3.61,3.61,0,0,0,1.38-.31v.92a4.82,4.82,0,0,1-1.55.28A2.4,2.4,0,0,1,106.06,36c0-.06,0-.13,0-.2a2.38,2.38,0,0,1,2.22-2.54h.36a3.67,3.67,0,0,1,1.5.32Z"/></g><g id="Group_78" data-name="Group 78"><path id="Path_95" data-name="Path 95" class="cls-3" d="M113.79,32.48a.56.56,0,1,1,.63-.56.59.59,0,0,1-.63.56m.53,5.59h-1.07V33.35h1.07Z"/></g><g id="Group_79" data-name="Group 79"><path id="Path_96" data-name="Path 96" class="cls-3" d="M121.66,37.8a1.83,1.83,0,0,1-1,.37c-.45,0-.7-.15-.79-.49a2.36,2.36,0,0,1-1.4.49A1.21,1.21,0,0,1,117.2,37v0c0-.93.93-1.22,1.77-1.49l.92-.3V35c0-.59-.32-.83-.94-.83a2.21,2.21,0,0,0-1.65.77v-1a2.27,2.27,0,0,1,1.73-.64c1,0,1.89.48,1.89,1.55v2.43c0,.18.07.24.2.24a1.27,1.27,0,0,0,.54-.25Zm-1.77-2.06c-.89.27-1.65.55-1.65,1.1a.68.68,0,0,0,.69.66h0a1.33,1.33,0,0,0,.9-.39Z"/></g><path id="Path_98" data-name="Path 98" class="cls-3" d="M123.68,38.07h.86V30.91h-.86Z"/><g id="Group_81" data-name="Group 81"><path id="Path_99" data-name="Path 99" class="cls-3" d="M137.79,32.48a2.81,2.81,0,0,0-1.85-.75c-.73,0-1.25.35-1.25.86,0,1.37,3.42,1.35,3.42,3.63a2,2,0,0,1-2.11,2h-.11a3.72,3.72,0,0,1-2.21-.67V36.2a2.75,2.75,0,0,0,2.08,1c.88,0,1.29-.5,1.29-.9,0-1.48-3.42-1.65-3.42-3.62,0-1.16,1-1.91,2.4-1.91a3.52,3.52,0,0,1,1.76.5Z"/></g><g id="Group_82" data-name="Group 82"><path id="Path_100" data-name="Path 100" class="cls-3" d="M145.41,37.61a3.69,3.69,0,0,1-2.07.56,2.43,2.43,0,0,1-2.53-2.33v-.19a2.3,2.3,0,0,1,2.19-2.4h.24c1.38,0,2.26.86,2.26,2.6h-3.66a1.59,1.59,0,0,0,1.73,1.43h0a3.48,3.48,0,0,0,1.82-.56Zm-.93-2.38a1.12,1.12,0,0,0-1.11-1.16h-.1a1.3,1.3,0,0,0-1.4,1.16Z"/></g><g id="Group_83" data-name="Group 83"><path id="Path_101" data-name="Path 101" class="cls-3" d="M149.57,33.35v1.09h0c.53-.84,1-1.18,1.51-1.18a1.87,1.87,0,0,1,1.24.55l-.54.8a1.76,1.76,0,0,0-1-.46,1.36,1.36,0,0,0-1.26,1.45h0v2.47h-1V33.35Z"/></g><path id="Path_103" data-name="Path 103" class="cls-3" d="M154.57,33.35h1.12l1.4,2.9,1.37-2.9h1.1l-2.29,4.82h-.35Z"/><g id="Group_86" data-name="Group 86"><path id="Path_104" data-name="Path 104" class="cls-3" d="M162.75,32.48a.56.56,0,1,1,0-1.11.56.56,0,1,1,0,1.11m.53,5.59h-1.06V33.35h1.06Z"/></g><g id="Group_87" data-name="Group 87"><path id="Path_105" data-name="Path 105" class="cls-3" d="M170.41,34.58a2.62,2.62,0,0,0-1.44-.46,1.52,1.52,0,0,0-1.59,1.43,1,1,0,0,0,0,.17,1.55,1.55,0,0,0,1.53,1.58l.23,0a3.69,3.69,0,0,0,1.38-.31v.92a4.62,4.62,0,0,1-1.56.28A2.42,2.42,0,0,1,166.34,36c0-.07,0-.13,0-.2a2.38,2.38,0,0,1,2.21-2.54h.36a3.72,3.72,0,0,1,1.51.32Z"/></g><g id="Group_88" data-name="Group 88"><path id="Path_106" data-name="Path 106" class="cls-3" d="M177.86,37.61a3.69,3.69,0,0,1-2.07.56,2.44,2.44,0,0,1-2.53-2.33v-.19a2.32,2.32,0,0,1,2.2-2.4h.24c1.38,0,2.26.86,2.26,2.6h-3.67A1.6,1.6,0,0,0,176,37.28h0a3.54,3.54,0,0,0,1.82-.56Zm-.92-2.38a1.14,1.14,0,0,0-1.11-1.16h-.11a1.3,1.3,0,0,0-1.4,1.16Z"/></g><g id="Group_89" data-name="Group 89"><path id="Path_107" data-name="Path 107" class="cls-3" d="M184,34.57a3.11,3.11,0,0,0-1.51-.49c-.41,0-.68.18-.68.43s.35.46,1.26,1,1.17.84,1.17,1.32c0,.83-.73,1.39-1.71,1.39a3.92,3.92,0,0,1-1.81-.43v-1a3.58,3.58,0,0,0,1.7.62c.42,0,.77-.2.77-.54,0-.65-2.43-1-2.43-2.27,0-.8.67-1.28,1.71-1.28a3.41,3.41,0,0,1,1.53.39Z"/></g></svg>